<mxfile host="app.diagrams.net" modified="2024-03-21T16:31:08.106Z" agent="Mozilla/5.0 (Windows NT 10.0; Win64; x64) AppleWebKit/537.36 (KHTML, like Gecko) Chrome/122.0.0.0 Safari/537.36 OPR/108.0.0.0" version="24.0.7" etag="l4uExEk_eZxUMIXjaeeJ" type="github">
  <diagram name="Страница — 1" id="eyH2fybJxmm6visfyEp7">
    <mxGraphModel>
      <root>
        <mxCell id="0" />
        <mxCell id="1" parent="0" />
      </root>
    </mxGraphModel>
  </diagram>
</mxfile>
